<mxfile host="65bd71144e">
    <diagram id="wBkdEmV93BB6SxDpKUQ4" name="Page-1">
        <mxGraphModel dx="1404" dy="966" grid="1" gridSize="10" guides="1" tooltips="1" connect="1" arrows="1" fold="1" page="1" pageScale="1" pageWidth="827" pageHeight="1169" math="0" shadow="0">
            <root>
                <mxCell id="0"/>
                <mxCell id="1" parent="0"/>
                <mxCell id="2" value="AWS Cloud" style="points=[[0,0],[0.25,0],[0.5,0],[0.75,0],[1,0],[1,0.25],[1,0.5],[1,0.75],[1,1],[0.75,1],[0.5,1],[0.25,1],[0,1],[0,0.75],[0,0.5],[0,0.25]];outlineConnect=0;gradientColor=none;html=1;whiteSpace=wrap;fontSize=12;fontStyle=0;container=1;pointerEvents=0;collapsible=0;recursiveResize=0;shape=mxgraph.aws4.group;grIcon=mxgraph.aws4.group_aws_cloud;strokeColor=#232F3E;fillColor=none;verticalAlign=top;align=left;spacingLeft=30;fontColor=#232F3E;dashed=0;" vertex="1" parent="1">
                    <mxGeometry x="160" y="80" width="710" height="640" as="geometry"/>
                </mxCell>
                <mxCell id="3" value="Default VPC" style="points=[[0,0],[0.25,0],[0.5,0],[0.75,0],[1,0],[1,0.25],[1,0.5],[1,0.75],[1,1],[0.75,1],[0.5,1],[0.25,1],[0,1],[0,0.75],[0,0.5],[0,0.25]];outlineConnect=0;gradientColor=none;html=1;whiteSpace=wrap;fontSize=12;fontStyle=0;container=1;pointerEvents=0;collapsible=0;recursiveResize=0;shape=mxgraph.aws4.group;grIcon=mxgraph.aws4.group_vpc;strokeColor=#248814;fillColor=none;verticalAlign=top;align=left;spacingLeft=30;fontColor=#AAB7B8;dashed=0;" vertex="1" parent="2">
                    <mxGeometry x="30" y="50" width="570" height="550" as="geometry"/>
                </mxCell>
                <mxCell id="4" value="Public Subnet" style="points=[[0,0],[0.25,0],[0.5,0],[0.75,0],[1,0],[1,0.25],[1,0.5],[1,0.75],[1,1],[0.75,1],[0.5,1],[0.25,1],[0,1],[0,0.75],[0,0.5],[0,0.25]];outlineConnect=0;gradientColor=none;html=1;whiteSpace=wrap;fontSize=12;fontStyle=0;container=1;pointerEvents=0;collapsible=0;recursiveResize=0;shape=mxgraph.aws4.group;grIcon=mxgraph.aws4.group_security_group;grStroke=0;strokeColor=#248814;fillColor=#E9F3E6;verticalAlign=top;align=left;spacingLeft=30;fontColor=#248814;dashed=0;" vertex="1" parent="3">
                    <mxGeometry x="30" y="40" width="510" height="490" as="geometry"/>
                </mxCell>
                <mxCell id="5" value="EC2 Instance: t3.medium&lt;br&gt;(2 vCPU, 4GB RAM)" style="sketch=0;points=[[0,0,0],[0.25,0,0],[0.5,0,0],[0.75,0,0],[1,0,0],[0,1,0],[0.25,1,0],[0.5,1,0],[0.75,1,0],[1,1,0],[0,0.25,0],[0,0.5,0],[0,0.75,0],[1,0.25,0],[1,0.5,0],[1,0.75,0]];outlineConnect=0;fontColor=#232F3E;gradientColor=#F78E04;gradientDirection=north;fillColor=#D05C17;strokeColor=#ffffff;dashed=0;verticalLabelPosition=bottom;verticalAlign=top;align=center;html=1;fontSize=12;fontStyle=0;aspect=fixed;shape=mxgraph.aws4.resourceIcon;resIcon=mxgraph.aws4.ec2;" vertex="1" parent="4">
                    <mxGeometry x="200" y="195" width="78" height="78" as="geometry"/>
                </mxCell>
                <mxCell id="6" value="Security Group;&amp;nbsp;HTTP (80); HTTPS (443); Portainer (9443)" style="fillColor=none;strokeColor=#DD3522;verticalAlign=top;fontStyle=0;fontColor=#DD3522;whiteSpace=wrap;html=1;" vertex="1" parent="4">
                    <mxGeometry x="100" y="49" width="341" height="400" as="geometry"/>
                </mxCell>
                <mxCell id="7" value="EBS Volume&#xa;gp3, 20GB" style="sketch=0;points=[[0,0,0],[0.25,0,0],[0.5,0,0],[0.75,0,0],[1,0,0],[0,1,0],[0.25,1,0],[0.5,1,0],[0.75,1,0],[1,1,0],[0,0.25,0],[0,0.5,0],[0,0.75,0],[1,0.25,0],[1,0.5,0],[1,0.75,0]];outlineConnect=0;fontColor=#232F3E;gradientColor=#60A337;gradientDirection=north;fillColor=#277116;strokeColor=#ffffff;dashed=0;verticalLabelPosition=bottom;verticalAlign=top;align=center;html=1;fontSize=12;fontStyle=0;aspect=fixed;shape=mxgraph.aws4.resourceIcon;resIcon=mxgraph.aws4.elastic_block_store;" vertex="1" parent="4">
                    <mxGeometry x="360" y="210" width="78" height="78" as="geometry"/>
                </mxCell>
                <mxCell id="8" value="Elastic IP" style="sketch=0;outlineConnect=0;fontColor=#232F3E;gradientColor=none;fillColor=#4D27AA;strokeColor=none;dashed=0;verticalLabelPosition=bottom;verticalAlign=top;align=center;html=1;fontSize=12;fontStyle=0;aspect=fixed;pointerEvents=1;shape=mxgraph.aws4.elastic_ip_address;" vertex="1" parent="4">
                    <mxGeometry x="130" y="210" width="48" height="20" as="geometry"/>
                </mxCell>
                <mxCell id="9" value="IAM Role&#xa;LibreChatInstanceRole" style="sketch=0;outlineConnect=0;fontColor=#232F3E;gradientColor=none;fillColor=#BF0816;strokeColor=none;dashed=0;verticalLabelPosition=bottom;verticalAlign=top;align=center;html=1;fontSize=12;fontStyle=0;aspect=fixed;pointerEvents=1;shape=mxgraph.aws4.role;" vertex="1" parent="4">
                    <mxGeometry x="200" y="100" width="78" height="44" as="geometry"/>
                </mxCell>
                <mxCell id="13" value="" style="edgeStyle=orthogonalEdgeStyle;html=1;endArrow=block;elbow=vertical;startArrow=none;endFill=1;strokeColor=#545B64;rounded=0;" edge="1" parent="4" source="5" target="7">
                    <mxGeometry width="100" relative="1" as="geometry">
                        <mxPoint x="220" y="370" as="sourcePoint"/>
                        <Array as="points">
                            <mxPoint x="340" y="234"/>
                            <mxPoint x="340" y="259"/>
                        </Array>
                    </mxGeometry>
                </mxCell>
                <mxCell id="14" value="" style="edgeStyle=orthogonalEdgeStyle;html=1;endArrow=block;elbow=vertical;startArrow=none;endFill=1;strokeColor=#545B64;rounded=0;" edge="1" parent="4" source="9" target="5">
                    <mxGeometry width="100" relative="1" as="geometry">
                        <mxPoint x="220" y="370" as="sourcePoint"/>
                        <mxPoint x="320" y="370" as="targetPoint"/>
                    </mxGeometry>
                </mxCell>
                <mxCell id="15" value="" style="edgeStyle=orthogonalEdgeStyle;html=1;endArrow=block;elbow=vertical;startArrow=none;endFill=1;strokeColor=#545B64;rounded=0;" edge="1" parent="4" source="8" target="5">
                    <mxGeometry width="100" relative="1" as="geometry">
                        <mxPoint x="220" y="370" as="sourcePoint"/>
                        <mxPoint x="320" y="370" as="targetPoint"/>
                        <Array as="points">
                            <mxPoint x="140" y="234"/>
                        </Array>
                    </mxGeometry>
                </mxCell>
                <mxCell id="19" value="Systems Manager&#xa;Session Manager" style="sketch=0;points=[[0,0,0],[0.25,0,0],[0.5,0,0],[0.75,0,0],[1,0,0],[0,1,0],[0.25,1,0],[0.5,1,0],[0.75,1,0],[1,1,0],[0,0.25,0],[0,0.5,0],[0,0.75,0],[1,0.25,0],[1,0.5,0],[1,0.75,0]];points=[[0,0,0],[0.25,0,0],[0.5,0,0],[0.75,0,0],[1,0,0],[0,1,0],[0.25,1,0],[0.5,1,0],[0.75,1,0],[1,1,0],[0,0.25,0],[0,0.5,0],[0,0.75,0],[1,0.25,0],[1,0.5,0],[1,0.75,0]];outlineConnect=0;fontColor=#232F3E;gradientColor=#F34482;gradientDirection=north;fillColor=#BC1356;strokeColor=#ffffff;dashed=0;verticalLabelPosition=bottom;verticalAlign=top;align=center;html=1;fontSize=12;fontStyle=0;aspect=fixed;shape=mxgraph.aws4.resourceIcon;resIcon=mxgraph.aws4.systems_manager;" vertex="1" parent="4">
                    <mxGeometry x="10" y="376" width="78" height="78" as="geometry"/>
                </mxCell>
                <mxCell id="20" value="" style="edgeStyle=orthogonalEdgeStyle;html=1;endArrow=block;elbow=vertical;startArrow=none;endFill=1;strokeColor=#545B64;rounded=0;" edge="1" parent="4" source="19" target="5">
                    <mxGeometry width="100" relative="1" as="geometry">
                        <mxPoint x="170" y="260" as="sourcePoint"/>
                        <mxPoint x="270" y="260" as="targetPoint"/>
                        <Array as="points">
                            <mxPoint x="50" y="260"/>
                        </Array>
                    </mxGeometry>
                </mxCell>
                <mxCell id="10" value="Docker" style="fillColor=#E6F0FF;strokeColor=#2495ED;verticalAlign=top;fontStyle=1;fontColor=#2495ED;whiteSpace=wrap;html=1;" vertex="1" parent="4">
                    <mxGeometry x="270" y="360" width="110" height="70" as="geometry"/>
                </mxCell>
                <mxCell id="17" value="" style="edgeStyle=orthogonalEdgeStyle;html=1;endArrow=block;elbow=vertical;startArrow=none;endFill=1;strokeColor=#545B64;rounded=0;" edge="1" parent="4" source="10" target="5">
                    <mxGeometry width="100" relative="1" as="geometry">
                        <mxPoint x="220" y="370" as="sourcePoint"/>
                        <mxPoint x="320" y="370" as="targetPoint"/>
                        <Array as="points">
                            <mxPoint x="320" y="260"/>
                        </Array>
                    </mxGeometry>
                </mxCell>
                <mxCell id="30" value="" style="shape=image;verticalLabelPosition=bottom;labelBackgroundColor=default;verticalAlign=top;aspect=fixed;imageAspect=0;image=data:image/svg+xml,PHN2ZyB4bWxucz0iaHR0cDovL3d3dy53My5vcmcvMjAwMC9zdmciIHZpZXdCb3g9IjAgMCAyNSAyNSIgZmlsbD0ibm9uZSI+CjxwYXRoIGQ9Ik0yNC44NCA4LjQ1Yy0uMTYtLjItLjgzLS44NS0yLjQ1LS43OS0uMTYtMS4zMi0uODUtMi40OC0yLjA1LTMuNTFsLS42OS0uNDQtLjQ0LjY5Yy0uNTUuOTMtLjgzIDIuMjMtLjc3IDMuNDguMDMuMzUuMDkuODMuMjguMS4wOC4wNi4yNS4yMS42Mi4zNi0uMzcuMjItMS4wNy41LTIuMDEuNWgtMTkuMmwtLjAzLjczYy0uMDcgMS4zLjAzIDIuNjIuMzIgMy44OGwuMTcuNDYuMDQuMDdjLjk3IDEuOSAyLjY5IDMuMDQgNC41NiAzLjA0IDMuNTMgMCA2LjQzLTEuNTYgNy43Ni00LjkgMS43LjA0IDMuNDEtLjM3IDQuMjEtMS4yNWwuMzEtLjM5LjAzLS40OGMuMDQtLjYyLS4wMy0xLjI0LS4yLTEuNjZsLjA1LS4wMnoiIGZpbGw9IiMyNDk2RUQiLz4KPHBhdGggZD0iTTIuMTcgMTAuMDV2LS43NFYxMC4wNXpNMi4xNyA5LjMxaDEuODZ2MS40OEgyLjE3VjkuMzF6TTE1LjQ2IDkuMzFoMS44NnYxLjQ4aC0xLjg2VjkuMzF6TTEzLjA2IDkuMzFoMS44NnYxLjQ4aC0xLjg2VjkuMzF6TTEwLjY2IDkuMzFoMS44NnYxLjQ4aC0xLjg2VjkuMzF6TTguMjYgMTAuNzlaIiBmaWxsPSIjMjQ5NkVEIi8+CjxwYXRoIGQ9Ik04LjI2IDkuMzFoMS44NnYxLjQ4SDguMjZWOS4zMXpNNS44NiAxMC43OVoiIGZpbGw9IiMyNDk2RUQiLz4KPHBhdGggZD0iTTUuODYgOS4zMWgxLjg2djEuNDhINS44NlY5LjMxek01Ljg2IDYuOWgxLjg2djEuNDhINS44NlY2Ljl6TTguMjYgNi45aDEuODZ2MS40OEg4LjI2VjYuOXpNMTAuNjYgNi45aDEuODZ2MS40OGgtMS44NlY2Ljl6TTEwLjY2IDQuNWgxLjg2djEuNDhoLTEuODZWNC41ek0xMy4wNiA2LjloMS44NnYxLjQ4aC0xLjg2VjYuOXoiIGZpbGw9IiMyNDk2RUQiLz4KPC9zdmc+Cg==;" vertex="1" parent="4">
                    <mxGeometry x="305" y="370" width="50" height="50" as="geometry"/>
                </mxCell>
                <mxCell id="21" value="AWS Bedrock" style="sketch=0;points=[[0,0,0],[0.25,0,0],[0.5,0,0],[0.75,0,0],[1,0,0],[0,1,0],[0.25,1,0],[0.5,1,0],[0.75,1,0],[1,1,0],[0,0.25,0],[0,0.5,0],[0,0.75,0],[1,0.25,0],[1,0.5,0],[1,0.75,0]];outlineConnect=0;fontColor=#232F3E;gradientColor=#4AB29A;gradientDirection=north;fillColor=#116D5B;strokeColor=#ffffff;dashed=0;verticalLabelPosition=bottom;verticalAlign=top;align=center;html=1;fontSize=12;fontStyle=0;aspect=fixed;shape=mxgraph.aws4.resourceIcon;resIcon=mxgraph.aws4.sagemaker;" vertex="1" parent="2">
                    <mxGeometry x="620" y="212" width="78" height="78" as="geometry"/>
                </mxCell>
                <mxCell id="22" value="" style="edgeStyle=orthogonalEdgeStyle;html=1;endArrow=block;elbow=vertical;startArrow=none;endFill=1;strokeColor=#545B64;rounded=0;" edge="1" parent="2" source="5" target="21">
                    <mxGeometry width="100" relative="1" as="geometry">
                        <mxPoint x="320" y="370" as="sourcePoint"/>
                        <mxPoint x="220" y="370" as="targetPoint"/>
                        <Array as="points">
                            <mxPoint x="400" y="310"/>
                            <mxPoint x="400" y="260"/>
                        </Array>
                    </mxGeometry>
                </mxCell>
                <mxCell id="23" value="User/Developer" style="sketch=0;outlineConnect=0;fontColor=#232F3E;gradientColor=none;fillColor=#232F3E;strokeColor=none;dashed=0;verticalLabelPosition=bottom;verticalAlign=top;align=center;html=1;fontSize=12;fontStyle=0;aspect=fixed;pointerEvents=1;shape=mxgraph.aws4.user;" vertex="1" parent="1">
                    <mxGeometry x="40" y="320" width="50" height="50" as="geometry"/>
                </mxCell>
                <mxCell id="24" value="HTTPS (443)&#xa;HTTP (80)&#xa;Portainer (9443)" style="edgeStyle=orthogonalEdgeStyle;html=1;endArrow=block;elbow=vertical;startArrow=none;endFill=1;strokeColor=#545B64;rounded=0;" edge="1" parent="1" source="23" target="8">
                    <mxGeometry width="100" relative="1" as="geometry">
                        <mxPoint x="360" y="500" as="sourcePoint"/>
                        <mxPoint x="460" y="500" as="targetPoint"/>
                    </mxGeometry>
                </mxCell>
                <mxCell id="25" value="SSH-less Access" style="edgeStyle=orthogonalEdgeStyle;html=1;endArrow=block;elbow=vertical;startArrow=none;endFill=1;strokeColor=#545B64;rounded=0;" edge="1" parent="1" source="23" target="19">
                    <mxGeometry x="-0.5147" width="100" relative="1" as="geometry">
                        <mxPoint x="360" y="500" as="sourcePoint"/>
                        <mxPoint x="460" y="500" as="targetPoint"/>
                        <Array as="points">
                            <mxPoint x="65" y="590"/>
                        </Array>
                        <mxPoint as="offset"/>
                    </mxGeometry>
                </mxCell>
            </root>
        </mxGraphModel>
    </diagram>
</mxfile>